<svg version="1.1" xmlns="http://www.w3.org/2000/svg" xmlns:xlink="http://www.w3.org/1999/xlink" width="1290" height="914"><defs>
    <style type="text/css">
      @font-face {
        font-family: 'topology';
        src: url('http://at.alicdn.com/t/font_1331132_h688rvffmbc.ttf') format('truetype');
      }
    </style>
    <style type="text/css">
    @font-face {
      font-family: 'ltee';
      src: url('http://at.alicdn.com/t/font_2052340_ceohsubmal7.ttf') format('truetype');
    }
  </style>
  <style type="text/css">
  @font-face {
    font-family: 'ltdx';
    src: url('http://at.alicdn.com/t/font_2073009_5ilnjxypv6l.ttf') format('truetype');
  }
</style>
  </defs><g><g id="1489752" name="networks.Router"><path fill="none" stroke="#222222" paint-order="fill stroke markers" d=" M 496.9395976106311 396.01172981290074 L 549.129997610634 396.01172981290074 L 549.129997610634 396.01172981290074 A 0.1048000000000056 0.1048000000000056 0 0 1 549.2347976106339 396.11652981290075 L 549.2347976106339 412.71727464048786 L 549.2347976106339 412.71727464048786 A 0.1048000000000056 0.1048000000000056 0 0 1 549.129997610634 412.82207464048787 L 496.94498058615477 415.5060628643094 L 496.94498058615477 415.5060628643094 A 0.1048000000000056 0.1048000000000056 0 0 1 496.8347976106311 415.4014012019181 L 496.8347976106311 396.11652981290075 L 496.8347976106311 396.11652981290075 A 0.1048000000000056 0.1048000000000056 0 0 1 496.9395976106311 396.01172981290074 Z" stroke-miterlimit="10" stroke-dasharray=""/><path fill="none" stroke="#222222" paint-order="fill stroke markers" d=" M 502.0747976106314 412.82207464048787 L 543.9947976106337 412.82207464048787 L 543.9947976106337 415.5117298129018 L 502.0747976106314 415.5117298129018 L 502.0747976106314 412.82207464048787 Z" stroke-miterlimit="10" stroke-dasharray=""/><path fill="none" stroke="#222222" paint-order="fill stroke markers" d=" M 498.40679761063114 400.71862636462515 L 501.5507976106313 400.71862636462515 L 501.5507976106313 402.7358677439356 L 500.50279761063126 402.7358677439356 L 500.50279761063126 403.40828153703904 L 499.4547976106312 403.40828153703904 L 499.4547976106312 402.7358677439356 L 498.40679761063114 402.7358677439356 Z" stroke-miterlimit="10" stroke-dasharray=""/><path fill="none" stroke="#222222" paint-order="fill stroke markers" d=" M 502.8607976106314 400.71862636462515 L 506.00479761063156 400.71862636462515 L 506.00479761063156 402.7358677439356 L 504.9567976106315 402.7358677439356 L 504.9567976106315 403.40828153703904 L 503.90879761063144 403.40828153703904 L 503.90879761063144 402.7358677439356 L 502.8607976106314 402.7358677439356 Z" stroke-miterlimit="10" stroke-dasharray=""/><path fill="none" stroke="#222222" paint-order="fill stroke markers" d=" M 507.3147976106317 400.71862636462515 L 510.4587976106318 400.71862636462515 L 510.4587976106318 402.7358677439356 L 509.41079761063173 402.7358677439356 L 509.41079761063173 403.40828153703904 L 508.3627976106317 403.40828153703904 L 508.3627976106317 402.7358677439356 L 507.3147976106317 402.7358677439356 Z" stroke-miterlimit="10" stroke-dasharray=""/><path fill="none" stroke="#222222" paint-order="fill stroke markers" d=" M 511.7687976106319 400.71862636462515 L 514.9127976106321 400.71862636462515 L 514.9127976106321 402.7358677439356 L 513.864797610632 402.7358677439356 L 513.864797610632 403.40828153703904 L 512.816797610632 403.40828153703904 L 512.816797610632 402.7358677439356 L 511.7687976106319 402.7358677439356 Z" stroke-miterlimit="10" stroke-dasharray=""/><path fill="none" stroke="#222222" paint-order="fill stroke markers" d=" M 516.2227976106321 400.71862636462515 L 519.3667976106323 400.71862636462515 L 519.3667976106323 402.7358677439356 L 518.3187976106323 402.7358677439356 L 518.3187976106323 403.40828153703904 L 517.2707976106321 403.40828153703904 L 517.2707976106321 402.7358677439356 L 516.2227976106321 402.7358677439356 Z" stroke-miterlimit="10" stroke-dasharray=""/><path fill="none" stroke="#222222" paint-order="fill stroke markers" d=" M 520.6767976106323 400.71862636462515 L 523.8207976106326 400.71862636462515 L 523.8207976106326 402.7358677439356 L 522.7727976106324 402.7358677439356 L 522.7727976106324 403.40828153703904 L 521.7247976106324 403.40828153703904 L 521.7247976106324 402.7358677439356 L 520.6767976106323 402.7358677439356 Z" stroke-miterlimit="10" stroke-dasharray=""/><path fill="none" stroke="#222222" paint-order="fill stroke markers" d=" M 525.1307976106326 400.71862636462515 L 528.2747976106327 400.71862636462515 L 528.2747976106327 402.7358677439356 L 527.2267976106327 402.7358677439356 L 527.2267976106327 403.40828153703904 L 526.1787976106326 403.40828153703904 L 526.1787976106326 402.7358677439356 L 525.1307976106326 402.7358677439356 Z" stroke-miterlimit="10" stroke-dasharray=""/><path fill="none" stroke="#222222" paint-order="fill stroke markers" d=" M 529.5847976106328 400.71862636462515 L 532.728797610633 400.71862636462515 L 532.728797610633 402.7358677439356 L 531.6807976106329 402.7358677439356 L 531.6807976106329 403.40828153703904 L 530.6327976106329 403.40828153703904 L 530.6327976106329 402.7358677439356 L 529.5847976106328 402.7358677439356 Z" stroke-miterlimit="10" stroke-dasharray=""/><path fill="none" stroke="#222222" paint-order="fill stroke markers" d="" stroke-miterlimit="10" stroke-dasharray=""/><path fill="none" stroke="none"/><path fill="none" stroke="none"/><path fill="none" stroke="none"/><path fill="none" stroke="none"/><path fill="none" stroke="none"/><path fill="none" stroke="none"/><path fill="none" stroke="none"/><path fill="none" stroke="none"/><path fill="none" stroke="none"/><path fill="none" stroke="none"/><path fill="none" stroke="none"/><path fill="none" stroke="#222222" paint-order="fill stroke markers" d=" M 501.0267976106313 407.44276429565997 A 1.048000000000056 1.3448275862069692 0 1 1 501.02679708663135 407.4414194682979" stroke-miterlimit="10" stroke-dasharray=""/><path fill="none" stroke="#222222" paint-order="fill stroke markers" d=" M 542.9467976106336 400.71862636462515 L 542.9467976106336 408.11517808876346" stroke-miterlimit="10" stroke-dasharray=""/><path fill="none" stroke="#222222" paint-order="fill stroke markers" d=" M 539.5407976106334 404.4169022266943 L 541.6367976106335 404.4169022266943" stroke-miterlimit="10" stroke-dasharray=""/><path fill="none" stroke="#222222" paint-order="fill stroke markers" d=" M 544.2567976106336 404.4169022266943 L 546.3527976106337 404.4169022266943" stroke-miterlimit="10" stroke-dasharray=""/><path fill="none" stroke="#222222" paint-order="fill stroke markers" d=" M 541.8987976106334 402.0634539508321 L 542.9467976106336 400.71862636462515 L 543.9947976106336 402.0634539508321" stroke-miterlimit="10" stroke-dasharray=""/><path fill="none" stroke="#222222" paint-order="fill stroke markers" d=" M 541.8987976106334 406.7703505025565 L 542.9467976106336 408.11517808876346 L 543.9947976106336 406.7703505025565" stroke-miterlimit="10" stroke-dasharray=""/><path fill="none" stroke="#222222" paint-order="fill stroke markers" d=" M 540.5887976106334 403.0720746404873 L 541.6367976106335 404.4169022266943 L 540.5887976106334 405.76172981290125" stroke-miterlimit="10" stroke-dasharray=""/><path fill="none" stroke="#222222" paint-order="fill stroke markers" d=" M 545.3047976106337 403.0720746404873 L 544.2567976106336 404.4169022266943 L 545.3047976106337 405.76172981290125" stroke-miterlimit="10" stroke-dasharray=""/></g><g id="5e187ab" name="networks.Rack"><path fill="none" stroke="#222222" paint-order="fill stroke markers" d=" M 409.37153587236514 375.027942305613 L 439.37153587236685 375.027942305613 L 439.37153587236685 435.02794230561636 L 409.37153587236514 435.02794230561636 L 409.37153587236514 375.027942305613 Z" stroke-miterlimit="10" stroke-dasharray=""/><path fill="none" stroke="#222222" paint-order="fill stroke markers" d=" M 411.17153587236527 376.82794230561313 L 437.5715358723667 376.82794230561313 L 437.5715358723667 433.2279423056163 L 411.17153587236527 433.2279423056163 L 411.17153587236527 376.82794230561313 Z" stroke-miterlimit="10" stroke-dasharray=""/><path fill="none" stroke="#222222" paint-order="fill stroke markers" d=" M 411.17153587236527 382.2279423056134 L 437.5715358723667 382.2279423056134" stroke-miterlimit="10" stroke-dasharray=""/><path fill="none" stroke="#222222" paint-order="fill stroke markers" d=" M 411.17153587236527 387.6279423056137 L 437.5715358723667 387.6279423056137" stroke-miterlimit="10" stroke-dasharray=""/><path fill="none" stroke="#222222" paint-order="fill stroke markers" d=" M 411.17153587236527 393.02794230561403 L 437.5715358723667 393.02794230561403" stroke-miterlimit="10" stroke-dasharray=""/><path fill="none" stroke="#222222" paint-order="fill stroke markers" d=" M 411.17153587236527 398.4279423056143 L 437.5715358723667 398.4279423056143" stroke-miterlimit="10" stroke-dasharray=""/><path fill="none" stroke="#222222" paint-order="fill stroke markers" d=" M 411.17153587236527 403.8279423056146 L 437.5715358723667 403.8279423056146" stroke-miterlimit="10" stroke-dasharray=""/><path fill="none" stroke="#222222" paint-order="fill stroke markers" d=" M 411.17153587236527 414.6279423056152 L 437.5715358723667 414.6279423056152" stroke-miterlimit="10" stroke-dasharray=""/><path fill="none" stroke="#222222" paint-order="fill stroke markers" d=" M 411.17153587236527 420.0279423056155 L 437.5715358723667 420.0279423056155" stroke-miterlimit="10" stroke-dasharray=""/><path fill="none" stroke="#222222" paint-order="fill stroke markers" d=" M 411.17153587236527 430.82794230561615 L 437.5715358723667 430.82794230561615" stroke-miterlimit="10" stroke-dasharray=""/><path fill="none" stroke="#222222" paint-order="fill stroke markers" d=" M 413.57153587236536 378.6279423056132 L 415.3715358723655 378.6279423056132 L 415.3715358723655 379.82794230561325 L 413.57153587236536 379.82794230561325 L 413.57153587236536 378.6279423056132 Z" stroke-miterlimit="10" stroke-dasharray=""/><path fill="none" stroke="#222222" paint-order="fill stroke markers" d=" M 416.57153587236553 378.6279423056132 L 418.37153587236565 378.6279423056132 L 418.37153587236565 379.82794230561325 L 416.57153587236553 379.82794230561325 L 416.57153587236553 378.6279423056132 Z" stroke-miterlimit="10" stroke-dasharray=""/><path fill="none" stroke="#222222" paint-order="fill stroke markers" d=" M 419.5715358723657 378.6279423056132 L 421.3715358723658 378.6279423056132 L 421.3715358723658 379.82794230561325 L 419.5715358723657 379.82794230561325 L 419.5715358723657 378.6279423056132 Z" stroke-miterlimit="10" stroke-dasharray=""/><path fill="none" stroke="none"/><path fill="none" stroke="#222222" paint-order="fill stroke markers" d=" M 413.57153587236536 384.0279423056135 L 415.3715358723655 384.0279423056135 L 415.3715358723655 385.22794230561357 L 413.57153587236536 385.22794230561357 L 413.57153587236536 384.0279423056135 Z" stroke-miterlimit="10" stroke-dasharray=""/><path fill="none" stroke="#222222" paint-order="fill stroke markers" d=" M 416.57153587236553 384.0279423056135 L 418.37153587236565 384.0279423056135 L 418.37153587236565 385.22794230561357 L 416.57153587236553 385.22794230561357 L 416.57153587236553 384.0279423056135 Z" stroke-miterlimit="10" stroke-dasharray=""/><path fill="none" stroke="#222222" paint-order="fill stroke markers" d=" M 419.5715358723657 384.0279423056135 L 421.3715358723658 384.0279423056135 L 421.3715358723658 385.22794230561357 L 419.5715358723657 385.22794230561357 L 419.5715358723657 384.0279423056135 Z" stroke-miterlimit="10" stroke-dasharray=""/><path fill="none" stroke="none"/><path fill="none" stroke="#222222" paint-order="fill stroke markers" d=" M 413.57153587236536 389.42794230561384 L 415.3715358723655 389.42794230561384 L 415.3715358723655 390.6279423056139 L 413.57153587236536 390.6279423056139 L 413.57153587236536 389.42794230561384 Z" stroke-miterlimit="10" stroke-dasharray=""/><path fill="none" stroke="#222222" paint-order="fill stroke markers" d=" M 416.57153587236553 389.42794230561384 L 418.37153587236565 389.42794230561384 L 418.37153587236565 390.6279423056139 L 416.57153587236553 390.6279423056139 L 416.57153587236553 389.42794230561384 Z" stroke-miterlimit="10" stroke-dasharray=""/><path fill="none" stroke="#222222" paint-order="fill stroke markers" d=" M 419.5715358723657 389.42794230561384 L 421.3715358723658 389.42794230561384 L 421.3715358723658 390.6279423056139 L 419.5715358723657 390.6279423056139 L 419.5715358723657 389.42794230561384 Z" stroke-miterlimit="10" stroke-dasharray=""/><path fill="none" stroke="none"/><path fill="none" stroke="#222222" paint-order="fill stroke markers" d=" M 413.57153587236536 394.8279423056141 L 415.3715358723655 394.8279423056141 L 415.3715358723655 396.02794230561415 L 413.57153587236536 396.02794230561415 L 413.57153587236536 394.8279423056141 Z" stroke-miterlimit="10" stroke-dasharray=""/><path fill="none" stroke="#222222" paint-order="fill stroke markers" d=" M 416.57153587236553 394.8279423056141 L 418.37153587236565 394.8279423056141 L 418.37153587236565 396.02794230561415 L 416.57153587236553 396.02794230561415 L 416.57153587236553 394.8279423056141 Z" stroke-miterlimit="10" stroke-dasharray=""/><path fill="none" stroke="#222222" paint-order="fill stroke markers" d=" M 419.5715358723657 394.8279423056141 L 421.3715358723658 394.8279423056141 L 421.3715358723658 396.02794230561415 L 419.5715358723657 396.02794230561415 L 419.5715358723657 394.8279423056141 Z" stroke-miterlimit="10" stroke-dasharray=""/><path fill="none" stroke="none"/><path fill="none" stroke="#222222" paint-order="fill stroke markers" d=" M 413.57153587236536 400.2279423056144 L 415.3715358723655 400.2279423056144 L 415.3715358723655 401.42794230561447 L 413.57153587236536 401.42794230561447 L 413.57153587236536 400.2279423056144 Z" stroke-miterlimit="10" stroke-dasharray=""/><path fill="none" stroke="#222222" paint-order="fill stroke markers" d=" M 416.57153587236553 400.2279423056144 L 418.37153587236565 400.2279423056144 L 418.37153587236565 401.42794230561447 L 416.57153587236553 401.42794230561447 L 416.57153587236553 400.2279423056144 Z" stroke-miterlimit="10" stroke-dasharray=""/><path fill="none" stroke="#222222" paint-order="fill stroke markers" d=" M 419.5715358723657 400.2279423056144 L 421.3715358723658 400.2279423056144 L 421.3715358723658 401.42794230561447 L 419.5715358723657 401.42794230561447 L 419.5715358723657 400.2279423056144 Z" stroke-miterlimit="10" stroke-dasharray=""/><path fill="none" stroke="none"/><path fill="none" stroke="#222222" paint-order="fill stroke markers" d=" M 413.57153587236536 405.62794230561474 L 415.3715358723655 405.62794230561474 L 415.3715358723655 412.8279423056151 L 413.57153587236536 412.8279423056151 L 413.57153587236536 405.62794230561474 Z" stroke-miterlimit="10" stroke-dasharray=""/><path fill="none" stroke="#222222" paint-order="fill stroke markers" d=" M 416.57153587236553 405.62794230561474 L 418.37153587236565 405.62794230561474 L 418.37153587236565 412.8279423056151 L 416.57153587236553 412.8279423056151 L 416.57153587236553 405.62794230561474 Z" stroke-miterlimit="10" stroke-dasharray=""/><path fill="none" stroke="#222222" paint-order="fill stroke markers" d=" M 419.5715358723657 405.62794230561474 L 421.3715358723658 405.62794230561474 L 421.3715358723658 412.8279423056151 L 419.5715358723657 412.8279423056151 L 419.5715358723657 405.62794230561474 Z" stroke-miterlimit="10" stroke-dasharray=""/><path fill="none" stroke="none"/><path fill="none" stroke="#222222" paint-order="fill stroke markers" d=" M 413.57153587236536 416.4279423056153 L 415.3715358723655 416.4279423056153 L 415.3715358723655 417.62794230561536 L 413.57153587236536 417.62794230561536 L 413.57153587236536 416.4279423056153 Z" stroke-miterlimit="10" stroke-dasharray=""/><path fill="none" stroke="#222222" paint-order="fill stroke markers" d=" M 416.57153587236553 416.4279423056153 L 418.37153587236565 416.4279423056153 L 418.37153587236565 417.62794230561536 L 416.57153587236553 417.62794230561536 L 416.57153587236553 416.4279423056153 Z" stroke-miterlimit="10" stroke-dasharray=""/><path fill="none" stroke="#222222" paint-order="fill stroke markers" d=" M 419.5715358723657 416.4279423056153 L 421.3715358723658 416.4279423056153 L 421.3715358723658 417.62794230561536 L 419.5715358723657 417.62794230561536 L 419.5715358723657 416.4279423056153 Z" stroke-miterlimit="10" stroke-dasharray=""/><path fill="none" stroke="none"/><path fill="none" stroke="#222222" paint-order="fill stroke markers" d=" M 413.57153587236536 421.82794230561564 L 415.3715358723655 421.82794230561564 L 415.3715358723655 429.027942305616 L 413.57153587236536 429.027942305616 L 413.57153587236536 421.82794230561564 Z" stroke-miterlimit="10" stroke-dasharray=""/><path fill="none" stroke="#222222" paint-order="fill stroke markers" d=" M 416.57153587236553 421.82794230561564 L 418.37153587236565 421.82794230561564 L 418.37153587236565 429.027942305616 L 416.57153587236553 429.027942305616 L 416.57153587236553 421.82794230561564 Z" stroke-miterlimit="10" stroke-dasharray=""/><path fill="none" stroke="#222222" paint-order="fill stroke markers" d=" M 419.5715358723657 421.82794230561564 L 421.3715358723658 421.82794230561564 L 421.3715358723658 429.027942305616 L 419.5715358723657 429.027942305616 L 419.5715358723657 421.82794230561564 Z" stroke-miterlimit="10" stroke-dasharray=""/><path fill="none" stroke="none"/><path fill="none" stroke="#222222" paint-order="fill stroke markers" d=" M 422.57153587236587 405.62794230561474 L 424.371535872366 405.62794230561474 L 424.371535872366 412.8279423056151 L 422.57153587236587 412.8279423056151 L 422.57153587236587 405.62794230561474 Z" stroke-miterlimit="10" stroke-dasharray=""/><path fill="none" stroke="#222222" paint-order="fill stroke markers" d=" M 425.57153587236604 405.62794230561474 L 427.37153587236617 405.62794230561474 L 427.37153587236617 412.8279423056151 L 425.57153587236604 412.8279423056151 L 425.57153587236604 405.62794230561474 Z" stroke-miterlimit="10" stroke-dasharray=""/><path fill="none" stroke="#222222" paint-order="fill stroke markers" d=" M 422.57153587236587 421.82794230561564 L 424.371535872366 421.82794230561564 L 424.371535872366 429.027942305616 L 422.57153587236587 429.027942305616 L 422.57153587236587 421.82794230561564 Z" stroke-miterlimit="10" stroke-dasharray=""/><path fill="none" stroke="#222222" paint-order="fill stroke markers" d=" M 425.57153587236604 421.82794230561564 L 427.37153587236617 421.82794230561564 L 427.37153587236617 429.027942305616 L 425.57153587236604 429.027942305616 L 425.57153587236604 421.82794230561564 Z" stroke-miterlimit="10" stroke-dasharray=""/></g><g id="41dbd91" name="networks.Terminal"><path fill="none" stroke="#222222" paint-order="fill stroke markers" d=" M 598.0088057103767 341.1693693792158 L 628.0088057103784 341.1693693792158 L 628.0088057103784 358.04436937921696 L 598.0088057103767 358.04436937921696 L 598.0088057103767 341.1693693792158 Z" stroke-miterlimit="10" stroke-dasharray=""/><path fill="none" stroke="#222222" paint-order="fill stroke markers" d=" M 609.2588057103774 358.04436937921696 L 616.7588057103778 358.04436937921696 L 616.7588057103778 361.79436937921724 L 609.2588057103774 361.79436937921724 L 609.2588057103774 358.04436937921696 Z" stroke-miterlimit="10" stroke-dasharray="" stroke-linejoin="round"/><path fill="none" stroke="#222222" paint-order="fill stroke markers" d=" M 603.633805710377 361.4193693792172 L 622.383805710378 361.4193693792172 L 626.1338057103783 365.54436937921747 L 599.8838057103768 365.54436937921747 Z" stroke-linejoin="round" stroke-miterlimit="10" stroke-dasharray=""/><path fill="none" stroke="#222222" paint-order="fill stroke markers" d=" M 608.8838057103773 364.6068693792174 L 615.6338057103777 364.6068693792174" stroke-linejoin="round" stroke-miterlimit="10" stroke-dasharray=""/><path fill="none" stroke="#222222" paint-order="fill stroke markers" d=" M 604.008805710377 363.48186937921736 L 618.6338057103778 363.48186937921736" stroke-linejoin="round" stroke-miterlimit="10" stroke-dasharray=""/><path fill="none" stroke="#222222" paint-order="fill stroke markers" d=" M 604.758805710377 362.3568693792173 L 618.2588057103778 362.3568693792173" stroke-linejoin="round" stroke-miterlimit="10" stroke-dasharray=""/><path fill="none" stroke="#222222" paint-order="fill stroke markers" d=" M 619.3838057103778 362.3568693792173 L 622.008805710378 362.3568693792173" stroke-linejoin="round" stroke-miterlimit="10" stroke-dasharray=""/><path fill="none" stroke="#222222" paint-order="fill stroke markers" d=" M 620.1338057103779 363.48186937921736 L 622.758805710378 363.48186937921736" stroke-linejoin="round" stroke-miterlimit="10" stroke-dasharray=""/><path fill="none" stroke="#222222" paint-order="fill stroke markers" d=" M 620.8838057103779 364.6068693792174 L 623.5088057103782 364.6068693792174" stroke-linejoin="round" stroke-miterlimit="10" stroke-dasharray=""/><path fill="none" stroke="#222222" paint-order="fill stroke markers" d=" M 599.1338057103768 342.2943693792159 L 626.5088057103783 342.2943693792159 L 626.5088057103783 356.9193693792169 L 599.1338057103768 356.9193693792169 L 599.1338057103768 342.2943693792159 Z" stroke-linejoin="round" stroke-miterlimit="10" stroke-dasharray=""/></g><g id="54c6de" name="networks.UPS Enterprise"><path fill="none" stroke="#222222" paint-order="fill stroke markers" d=" M 410.5655822671498 487.729594687573 L 440.5655822671515 487.729594687573 L 440.5655822671515 517.7295946875747 L 410.5655822671498 517.7295946875747 L 410.5655822671498 487.729594687573 Z" stroke-miterlimit="10" stroke-dasharray=""/><path fill="none" stroke="#222222" paint-order="fill stroke markers" d=" M 434.56558226715117 487.729594687573 L 434.56558226715117 516.2295946875746" stroke-miterlimit="10" stroke-dasharray=""/><path fill="none" stroke="#222222" paint-order="fill stroke markers" d=" M 428.56558226715083 487.729594687573 L 428.56558226715083 516.2295946875746" stroke-miterlimit="10" stroke-dasharray=""/><path fill="none" stroke="#222222" paint-order="fill stroke markers" d=" M 422.5655822671505 487.729594687573 L 422.5655822671505 516.2295946875746" stroke-miterlimit="10" stroke-dasharray=""/><path fill="none" stroke="#222222" paint-order="fill stroke markers" d=" M 410.5655822671498 516.2295946875746 L 440.5655822671515 516.2295946875746" stroke-miterlimit="10" stroke-dasharray=""/><path fill="none" stroke="#222222" paint-order="fill stroke markers" d=" M 413.56558226715 491.3295946875732 L 419.5655822671503 491.3295946875732 L 419.5655822671503 495.5295946875734 L 413.56558226715 495.5295946875734 L 413.56558226715 491.3295946875732 Z" stroke-miterlimit="10" stroke-dasharray=""/><path fill="none" stroke="#222222" paint-order="fill stroke markers" d=" M 411.76558226714985 488.92959468757306 L 415.36558226715005 488.92959468757306 L 415.36558226715005 489.8295946875731 L 411.76558226714985 489.8295946875731 L 411.76558226714985 488.92959468757306 Z" stroke-miterlimit="10" stroke-dasharray=""/><path fill="none" stroke="#222222" paint-order="fill stroke markers" d=" M 420.76558226715036 499.7295946875737 L 421.6655822671504 499.7295946875737 L 421.6655822671504 504.529594687574 L 420.76558226715036 504.529594687574 L 420.76558226715036 499.7295946875737 Z" stroke-miterlimit="10" stroke-dasharray=""/><path fill="none" stroke="#222222" paint-order="fill stroke markers" d=" M 411.76558226714985 508.7295946875742 L 421.3655822671504 508.7295946875742 L 421.3655822671504 509.32959468757423 L 411.76558226714985 509.32959468757423 L 411.76558226714985 508.7295946875742 Z" stroke-miterlimit="10" stroke-dasharray=""/><path fill="none" stroke="#222222" paint-order="fill stroke markers" d=" M 411.76558226714985 510.22959468757426 L 421.3655822671504 510.22959468757426 L 421.3655822671504 510.8295946875743 L 411.76558226714985 510.8295946875743 L 411.76558226714985 510.22959468757426 Z" stroke-miterlimit="10" stroke-dasharray=""/><path fill="none" stroke="#222222" paint-order="fill stroke markers" d=" M 411.76558226714985 511.7295946875744 L 421.3655822671504 511.7295946875744 L 421.3655822671504 512.3295946875744 L 411.76558226714985 512.3295946875744 L 411.76558226714985 511.7295946875744 Z" stroke-miterlimit="10" stroke-dasharray=""/><path fill="none" stroke="#222222" paint-order="fill stroke markers" d=" M 411.76558226714985 513.2295946875745 L 421.3655822671504 513.2295946875745 L 421.3655822671504 513.8295946875745 L 411.76558226714985 513.8295946875745 L 411.76558226714985 513.2295946875745 Z" stroke-miterlimit="10" stroke-dasharray=""/><path fill="none" stroke="#222222" paint-order="fill stroke markers" d=" M 411.76558226714985 514.7295946875745 L 421.3655822671504 514.7295946875745 L 421.3655822671504 515.3295946875745 L 411.76558226714985 515.3295946875745 L 411.76558226714985 514.7295946875745 Z" stroke-miterlimit="10" stroke-dasharray=""/></g><g id="b0900b4" name="networks.Radio Tower"><path fill="none" stroke="#222222" paint-order="fill stroke markers" d="" stroke-linejoin="round" stroke-miterlimit="10" stroke-dasharray=""/><path fill="none" stroke="#222222" paint-order="fill stroke markers" d=" M 119.0705152425914 425.4668558530443 L 131.4439685609273 379.0664059092844 L 143.8174218792632 425.4668558530443" stroke-linejoin="round" stroke-miterlimit="10" stroke-dasharray=""/><path fill="none" stroke="#222222" paint-order="fill stroke markers" d=" M 143.2549921829752 422.3734925234603 L 122.44509342031938 413.09340253470833 L 138.75555461267123 406.9066758755404 L 126.10088644619134 400.71994921637236 L 135.38097643494328 394.8144374053484 L 128.91303492763132 389.4713552906124" stroke-linejoin="round" stroke-miterlimit="10" stroke-dasharray=""/><path fill="none" stroke="#222222" paint-order="fill stroke markers" d=" M 116.44396856092646 369.89880185979007 L 116.44396856092646 369.89880185979007 L 116.44396856092646 369.89880185979007 L 116.44396856092646 369.89880185979007 L 116.44396856092646 369.89880185979007 Z" stroke-linejoin="round" stroke-miterlimit="10" stroke-dasharray=""/><path fill="none" stroke="#222222" paint-order="fill stroke markers" d=" M 133.69368734607926 380.1912653018604 A 2.2497187851519813 2.249718785151993 0 1 1 133.69368622121996 380.1890155834502" stroke-linejoin="round" stroke-miterlimit="10" stroke-dasharray=""/><path fill="none" stroke="#222222" paint-order="fill stroke markers" d=" M 135.26849049568568 376.36674336710206 L 136.05589207048885 375.41061288341245 C 138.62828493569228 378.0349785315474 138.62828493569228 382.2350661329159 136.05589207048885 384.85943178105083 L 135.26849049568568 383.95954426699 C 137.23461176926145 381.81044925754736 137.23461176926145 378.5158383765447 135.26849049568568 376.36674336710206 Z" stroke-linejoin="round" stroke-miterlimit="10" stroke-dasharray=""/><path fill="none" stroke="#222222" paint-order="fill stroke markers" d=" M 138.08063897712566 373.5545948856621 L 138.86804055192883 372.7671933108589 C 142.8680283699379 376.90839774263577 142.8680283699379 383.47413286108514 138.86804055192883 387.615337292862 L 138.08063897712566 386.8279357180588 C 141.65195743785125 383.1241616460939 141.65195743785125 377.258368957627 138.08063897712566 373.5545948856621 Z" stroke-linejoin="round" stroke-miterlimit="10" stroke-dasharray=""/><path fill="none" stroke="#222222" paint-order="fill stroke markers" d=" M 140.89278745856564 370.74244640422205 L 141.6801890333688 369.89880185979007 C 144.70279073857026 372.463507015317 146.44525250157545 376.22719749176014 146.44525250157545 380.1912653018604 C 146.44525250157545 384.1553331119607 144.70279073857026 387.91902358840383 141.6801890333688 390.4837287439308 L 140.89278745856564 389.6400841994988 C 143.76597896902697 387.34550206027353 145.43903012570928 383.8682663420342 145.43903012570928 380.1912653018604 C 145.43903012570928 376.51426426168666 143.76597896902697 373.0370285434473 140.89278745856564 370.74244640422205 Z" stroke-linejoin="round" stroke-miterlimit="10" stroke-dasharray=""/><path fill="none" stroke="#222222" paint-order="fill stroke markers" d=" M 127.61944662616894 376.36674336710206 L 126.83204505136574 375.41061288341245 C 124.25965218616231 378.0349785315474 124.25965218616231 382.2350661329159 126.83204505136574 384.85943178105083 L 127.61944662616894 383.95954426699 C 125.65332535259319 381.81044925754736 125.65332535259319 378.5158383765447 127.61944662616894 376.36674336710206 Z" stroke-linejoin="round" stroke-miterlimit="10" stroke-dasharray=""/><path fill="none" stroke="#222222" paint-order="fill stroke markers" d=" M 124.80729814472895 373.5545948856621 L 124.01989656992576 372.7671933108589 C 120.01990875191672 376.90839774263577 120.01990875191672 383.47413286108514 124.01989656992576 387.615337292862 L 124.80729814472895 386.8279357180588 C 121.23597968400337 383.1241616460939 121.23597968400337 377.258368957627 124.80729814472895 373.5545948856621 Z" stroke-linejoin="round" stroke-miterlimit="10" stroke-dasharray=""/><path fill="none" stroke="#222222" paint-order="fill stroke markers" d=" M 121.99514966328898 370.74244640422205 L 121.20774808848579 369.89880185979007 C 118.18514638328433 372.463507015317 116.44268462027914 376.22719749176014 116.44268462027914 380.1912653018604 C 116.44268462027914 384.1553331119607 118.18514638328433 387.91902358840383 121.20774808848579 390.4837287439308 L 121.99514966328898 389.6400841994988 C 119.12195815282764 387.34550206027353 117.44890699614534 383.8682663420342 117.44890699614534 380.1912653018604 C 117.44890699614533 376.51426426168666 119.12195815282764 373.0370285434473 121.99514966328898 370.74244640422205 Z" stroke-linejoin="round" stroke-miterlimit="10" stroke-dasharray=""/><path fill="none" stroke="#222222" paint-order="fill stroke markers" d="" stroke-linejoin="round" stroke-miterlimit="10" stroke-dasharray=""/></g><g id="7053822" name="networks.Radio Tower"><path fill="none" stroke="#222222" paint-order="fill stroke markers" d="" stroke-linejoin="round" stroke-miterlimit="10" stroke-dasharray=""/><path fill="none" stroke="#222222" paint-order="fill stroke markers" d=" M 292.9223384194261 336.8813208056411 L 305.29579173776204 290.4808708618813 L 317.6692450560979 336.8813208056411" stroke-linejoin="round" stroke-miterlimit="10" stroke-dasharray=""/><path fill="none" stroke="#222222" paint-order="fill stroke markers" d=" M 317.10681535980996 333.7879574760571 L 296.2969165971541 324.50786748730513 L 312.60737778950596 318.3211408281372 L 299.95270962302607 312.13441416896916 L 309.232799611778 306.2289023579452 L 302.76485810446604 300.8858202432092" stroke-linejoin="round" stroke-miterlimit="10" stroke-dasharray=""/><path fill="none" stroke="#222222" paint-order="fill stroke markers" d=" M 290.2957917377612 281.31326681238687 L 290.2957917377612 281.31326681238687 L 290.2957917377612 281.31326681238687 L 290.2957917377612 281.31326681238687 L 290.2957917377612 281.31326681238687 Z" stroke-linejoin="round" stroke-miterlimit="10" stroke-dasharray=""/><path fill="none" stroke="#222222" paint-order="fill stroke markers" d=" M 307.545510522914 291.6057302544572 A 2.2497187851519813 2.249718785151993 0 1 1 307.5455093980547 291.603480536047" stroke-linejoin="round" stroke-miterlimit="10" stroke-dasharray=""/><path fill="none" stroke="#222222" paint-order="fill stroke markers" d=" M 309.1203136725204 287.78120831969886 L 309.9077152473236 286.82507783600926 C 312.48010811252703 289.4494434841442 312.48010811252703 293.6495310855127 309.9077152473236 296.27389673364763 L 309.1203136725204 295.3740092195868 C 311.0864349460962 293.22491421014416 311.0864349460962 289.9303033291415 309.1203136725204 287.78120831969886 Z" stroke-linejoin="round" stroke-miterlimit="10" stroke-dasharray=""/><path fill="none" stroke="#222222" paint-order="fill stroke markers" d=" M 311.9324621539604 284.9690598382589 L 312.7198637287636 284.1816582634557 C 316.71985154677265 288.3228626952326 316.71985154677265 294.88859781368194 312.7198637287636 299.0298022454588 L 311.9324621539604 298.2424006706556 C 315.503780614686 294.5386265986907 315.503780614686 288.67283391022374 311.9324621539604 284.9690598382589 Z" stroke-linejoin="round" stroke-miterlimit="10" stroke-dasharray=""/><path fill="none" stroke="#222222" paint-order="fill stroke markers" d=" M 314.74461063540036 282.15691135681885 L 315.53201221020356 281.31326681238687 C 318.554613915405 283.8779719679138 320.2970756784102 287.64166244435694 320.2970756784102 291.6057302544572 C 320.2970756784102 295.5697980645575 318.554613915405 299.33348854100063 315.53201221020356 301.8981936965276 L 314.74461063540036 301.0545491520956 C 317.61780214586173 298.75996701287033 319.290853302544 295.282731294631 319.290853302544 291.6057302544572 C 319.290853302544 287.92872921428346 317.61780214586173 284.4514934960441 314.74461063540036 282.15691135681885 Z" stroke-linejoin="round" stroke-miterlimit="10" stroke-dasharray=""/><path fill="none" stroke="#222222" paint-order="fill stroke markers" d=" M 301.4712698030037 287.78120831969886 L 300.6838682282005 286.82507783600926 C 298.11147536299706 289.4494434841442 298.11147536299706 293.6495310855127 300.6838682282005 296.27389673364763 L 301.4712698030037 295.3740092195868 C 299.5051485294279 293.22491421014416 299.5051485294279 289.9303033291415 301.4712698030037 287.78120831969886 Z" stroke-linejoin="round" stroke-miterlimit="10" stroke-dasharray=""/><path fill="none" stroke="#222222" paint-order="fill stroke markers" d=" M 298.6591213215637 284.9690598382589 L 297.8717197467605 284.1816582634557 C 293.87173192875144 288.3228626952326 293.87173192875144 294.88859781368194 297.8717197467605 299.0298022454588 L 298.6591213215637 298.2424006706556 C 295.0878028608381 294.5386265986907 295.0878028608381 288.6728339102238 298.6591213215637 284.9690598382589 Z" stroke-linejoin="round" stroke-miterlimit="10" stroke-dasharray=""/><path fill="none" stroke="#222222" paint-order="fill stroke markers" d=" M 295.8469728401237 282.15691135681885 L 295.0595712653205 281.31326681238687 C 292.0369695601191 283.8779719679138 290.2945077971139 287.64166244435694 290.2945077971139 291.6057302544572 C 290.2945077971139 295.5697980645575 292.0369695601191 299.33348854100063 295.0595712653205 301.8981936965276 L 295.8469728401237 301.0545491520956 C 292.97378132966236 298.75996701287033 291.3007301729801 295.282731294631 291.3007301729801 291.6057302544572 C 291.3007301729801 287.92872921428346 292.97378132966236 284.4514934960441 295.8469728401237 282.15691135681885 Z" stroke-linejoin="round" stroke-miterlimit="10" stroke-dasharray=""/><path fill="none" stroke="#222222" paint-order="fill stroke markers" d="" stroke-linejoin="round" stroke-miterlimit="10" stroke-dasharray=""/></g><g id="41cfba4e" name="networks.Radio Tower"><path fill="none" stroke="#222222" paint-order="fill stroke markers" d="" stroke-linejoin="round" stroke-miterlimit="10" stroke-dasharray=""/><path fill="none" stroke="#222222" paint-order="fill stroke markers" d=" M 293.9917273638151 426.39624876983885 L 306.365180682151 379.99579882607895 L 318.73863400048685 426.39624876983885" stroke-linejoin="round" stroke-miterlimit="10" stroke-dasharray=""/><path fill="none" stroke="#222222" paint-order="fill stroke markers" d=" M 318.1762043041989 423.30288544025484 L 297.36630554154306 414.0227954515029 L 313.6767667338949 407.8360687923349 L 301.022098567415 401.6493421331669 L 310.3021885561669 395.7438303221429 L 303.834247048855 390.40074820740693" stroke-linejoin="round" stroke-miterlimit="10" stroke-dasharray=""/><path fill="none" stroke="#222222" paint-order="fill stroke markers" d=" M 291.36518068215014 370.8281947765846 L 291.36518068215014 370.8281947765846 L 291.36518068215014 370.8281947765846 L 291.36518068215014 370.8281947765846 L 291.36518068215014 370.8281947765846 Z" stroke-linejoin="round" stroke-miterlimit="10" stroke-dasharray=""/><path fill="none" stroke="#222222" paint-order="fill stroke markers" d=" M 308.61489946730296 381.12065821865497 A 2.2497187851519813 2.249718785151993 0 1 1 308.61489834244367 381.11840850024475" stroke-linejoin="round" stroke-miterlimit="10" stroke-dasharray=""/><path fill="none" stroke="#222222" paint-order="fill stroke markers" d=" M 310.18970261690936 377.2961362838966 L 310.97710419171256 376.340005800207 C 313.549497056916 378.9643714483419 313.549497056916 383.16445904971044 310.97710419171256 385.78882469784537 L 310.18970261690936 384.88893718378455 C 312.1558238904851 382.7398421743419 312.1558238904851 379.44523129333925 310.18970261690936 377.2961362838966 Z" stroke-linejoin="round" stroke-miterlimit="10" stroke-dasharray=""/><path fill="none" stroke="#222222" paint-order="fill stroke markers" d=" M 313.00185109834933 374.4839878024566 L 313.78925267315253 373.6965862276534 C 317.7892404911616 377.8377906594303 317.7892404911616 384.4035257778797 313.78925267315253 388.54473020965656 L 313.00185109834933 387.75732863485337 C 316.5731695590749 384.05355456288845 316.5731695590749 378.18776187442154 313.00185109834933 374.4839878024566 Z" stroke-linejoin="round" stroke-miterlimit="10" stroke-dasharray=""/><path fill="none" stroke="#222222" paint-order="fill stroke markers" d=" M 315.8139995797893 371.6718393210166 L 316.6014011545925 370.8281947765846 C 319.62400285979396 373.39289993211156 321.3664646227991 377.1565904085547 321.3664646227991 381.12065821865497 C 321.3664646227991 385.08472602875526 319.62400285979396 388.8484165051984 316.6014011545925 391.4131216607253 L 315.8139995797893 390.56947711629334 C 318.6871910902507 388.2748949770681 320.36024224693296 384.79765925882873 320.36024224693296 381.12065821865497 C 320.36024224693296 377.4436571784812 318.6871910902507 373.96642146024186 315.8139995797893 371.6718393210166 Z" stroke-linejoin="round" stroke-miterlimit="10" stroke-dasharray=""/><path fill="none" stroke="#222222" paint-order="fill stroke markers" d=" M 302.5406587473926 377.2961362838966 L 301.75325717258943 376.340005800207 C 299.180864307386 378.9643714483419 299.180864307386 383.16445904971044 301.75325717258943 385.78882469784537 L 302.5406587473926 384.88893718378455 C 300.57453747381686 382.7398421743419 300.57453747381686 379.44523129333925 302.5406587473926 377.2961362838966 Z" stroke-linejoin="round" stroke-miterlimit="10" stroke-dasharray=""/><path fill="none" stroke="#222222" paint-order="fill stroke markers" d=" M 299.72851026595265 374.4839878024566 L 298.94110869114945 373.6965862276534 C 294.9411208731404 377.8377906594303 294.9411208731404 384.4035257778797 298.94110869114945 388.54473020965656 L 299.72851026595265 387.75732863485337 C 296.15719180522706 384.05355456288845 296.15719180522706 378.18776187442154 299.72851026595265 374.4839878024566 Z" stroke-linejoin="round" stroke-miterlimit="10" stroke-dasharray=""/><path fill="none" stroke="#222222" paint-order="fill stroke markers" d=" M 296.9163617845127 371.6718393210166 L 296.1289602097095 370.8281947765846 C 293.106358504508 373.39289993211156 291.36389674150286 377.1565904085547 291.36389674150286 381.12065821865497 C 291.36389674150286 385.08472602875526 293.106358504508 388.8484165051984 296.1289602097095 391.4131216607253 L 296.9163617845127 390.56947711629334 C 294.0431702740513 388.2748949770681 292.37011911736903 384.79765925882873 292.37011911736903 381.12065821865497 C 292.37011911736903 377.4436571784812 294.0431702740513 373.96642146024186 296.9163617845127 371.6718393210166 Z" stroke-linejoin="round" stroke-miterlimit="10" stroke-dasharray=""/><path fill="none" stroke="#222222" paint-order="fill stroke markers" d="" stroke-linejoin="round" stroke-miterlimit="10" stroke-dasharray=""/></g><g id="52a1ff95" name="networks.Radio Tower"><path fill="none" stroke="#222222" paint-order="fill stroke markers" d="" stroke-linejoin="round" stroke-miterlimit="10" stroke-dasharray=""/><path fill="none" stroke="#222222" paint-order="fill stroke markers" d=" M 294.5371819092698 513.2042574278519 L 306.9106352276057 466.803807484092 L 319.2840885459416 513.2042574278519" stroke-linejoin="round" stroke-miterlimit="10" stroke-dasharray=""/><path fill="none" stroke="#222222" paint-order="fill stroke markers" d=" M 318.72165884965364 510.11089409826786 L 297.9117600869978 500.8308041095159 L 314.22222127934964 494.64407745034794 L 301.56755311286975 488.4573507911799 L 310.84764310162166 482.55183898015594 L 304.3797015943097 477.20875686541996" stroke-linejoin="round" stroke-miterlimit="10" stroke-dasharray=""/><path fill="none" stroke="#222222" paint-order="fill stroke markers" d=" M 291.91063522760487 457.63620343459763 L 291.91063522760487 457.63620343459763 L 291.91063522760487 457.63620343459763 L 291.91063522760487 457.63620343459763 L 291.91063522760487 457.63620343459763 Z" stroke-linejoin="round" stroke-miterlimit="10" stroke-dasharray=""/><path fill="none" stroke="#222222" paint-order="fill stroke markers" d=" M 309.1603540127577 467.928666876668 A 2.2497187851519813 2.249718785151993 0 1 1 309.1603528878984 467.9264171582578" stroke-linejoin="round" stroke-miterlimit="10" stroke-dasharray=""/><path fill="none" stroke="#222222" paint-order="fill stroke markers" d=" M 310.7351571623641 464.1041449419096 L 311.5225587371673 463.14801445822 C 314.0949516023707 465.77238010635494 314.0949516023707 469.97246770772347 311.5225587371673 472.5968333558584 L 310.7351571623641 471.69694584179757 C 312.70127843593986 469.5478508323549 312.70127843593986 466.25323995135227 310.7351571623641 464.1041449419096 Z" stroke-linejoin="round" stroke-miterlimit="10" stroke-dasharray=""/><path fill="none" stroke="#222222" paint-order="fill stroke markers" d=" M 313.54730564380407 461.29199646046965 L 314.33470721860726 460.50459488566645 C 318.3346950366163 464.64579931744333 318.3346950366163 471.2115344358927 314.33470721860726 475.3527388676696 L 313.54730564380407 474.5653372928664 C 317.11862410452966 470.8615632209015 317.11862410452966 464.99577053243456 313.54730564380407 461.29199646046965 Z" stroke-linejoin="round" stroke-miterlimit="10" stroke-dasharray=""/><path fill="none" stroke="#222222" paint-order="fill stroke markers" d=" M 316.35945412524404 458.4798479790296 L 317.14685570004724 457.63620343459763 C 320.1694574052487 460.2009085901246 321.91191916825386 463.9645990665677 321.91191916825386 467.928666876668 C 321.91191916825386 471.8927346867683 320.1694574052487 475.6564251632114 317.14685570004724 478.22113031873835 L 316.35945412524404 477.37748577430636 C 319.2326456357054 475.0829036350811 320.9056967923877 471.60566791684175 320.9056967923877 467.928666876668 C 320.9056967923877 464.2516658364942 319.2326456357054 460.7744301182549 316.35945412524404 458.4798479790296 Z" stroke-linejoin="round" stroke-miterlimit="10" stroke-dasharray=""/><path fill="none" stroke="#222222" paint-order="fill stroke markers" d=" M 303.08611329284736 464.1041449419096 L 302.29871171804416 463.14801445822 C 299.72631885284073 465.77238010635494 299.72631885284073 469.97246770772347 302.29871171804416 472.5968333558584 L 303.08611329284736 471.69694584179757 C 301.1199920192716 469.5478508323549 301.1199920192716 466.25323995135227 303.08611329284736 464.1041449419096 Z" stroke-linejoin="round" stroke-miterlimit="10" stroke-dasharray=""/><path fill="none" stroke="#222222" paint-order="fill stroke markers" d=" M 300.2739648114074 461.29199646046965 L 299.4865632366042 460.50459488566645 C 295.4865754185951 464.64579931744333 295.4865754185951 471.2115344358927 299.4865632366042 475.3527388676696 L 300.2739648114074 474.5653372928664 C 296.7026463506818 470.8615632209015 296.7026463506818 464.99577053243456 300.2739648114074 461.29199646046965 Z" stroke-linejoin="round" stroke-miterlimit="10" stroke-dasharray=""/><path fill="none" stroke="#222222" paint-order="fill stroke markers" d=" M 297.4618163299674 458.4798479790296 L 296.6744147551642 457.63620343459763 C 293.65181304996275 460.2009085901246 291.9093512869576 463.9645990665677 291.9093512869576 467.928666876668 C 291.9093512869576 471.8927346867683 293.65181304996275 475.6564251632114 296.6744147551642 478.22113031873835 L 297.4618163299674 477.37748577430636 C 294.58862481950604 475.0829036350811 292.91557366282376 471.60566791684175 292.91557366282376 467.928666876668 C 292.91557366282376 464.2516658364942 294.58862481950604 460.7744301182549 297.4618163299674 458.4798479790296 Z" stroke-linejoin="round" stroke-miterlimit="10" stroke-dasharray=""/><path fill="none" stroke="#222222" paint-order="fill stroke markers" d="" stroke-linejoin="round" stroke-miterlimit="10" stroke-dasharray=""/></g><g id="93d06da" name="line" from-id="b0900b4" to-id="41cfba4e"><path fill="none" stroke="#222222" paint-order="fill stroke markers" d=" M 136.5439685609283 397.6828288564168 L 301.2651806821507 398.61222177321133" stroke-linecap="round" stroke-miterlimit="10" stroke-width="1.0000000000000009" stroke-dasharray="10,10"/><g stroke="#222222" stroke-linecap="round" stroke-miterlimit="10" stroke-width="2" fill="#222222"><path fill="" stroke="" d=""/><g transform="translate(301.2651806821507,398.61222177321133) rotate(0.3232718233381031,0,0) translate(-303.2651806821507,-398.61222177321133)"><path fill="" stroke="" paint-order="stroke fill markers" d=" M 301.2651806821507 398.61222177321133 L 301.2651806821507 398.61222177321133 L 296.7651806821507 397.11222177321133 L 296.7651806821507 400.11222177321133 Z"/></g></g></g><g id="f937894" name="line" from-id="b0900b4" to-id="52a1ff95"><path fill="none" stroke="#222222" paint-order="fill stroke markers" d=" M 136.5439685609283 397.6828288564168 L 301.8106352276054 485.4202304312249" stroke-linecap="round" stroke-miterlimit="10" stroke-width="1.0000000000000009" stroke-dasharray="10,10"/><g stroke="#222222" stroke-linecap="round" stroke-miterlimit="10" stroke-width="2" fill="#222222"><path fill="" stroke="" d=""/><g transform="translate(301.8106352276054,485.4202304312249) rotate(27.963109909902713,0,0) translate(-303.8106352276054,-485.4202304312249)"><path fill="" stroke="" paint-order="stroke fill markers" d=" M 301.8106352276054 485.4202304312249 L 301.8106352276054 485.4202304312249 L 297.3106352276054 483.9202304312249 L 297.3106352276054 486.9202304312249 Z"/></g></g></g><g id="ddad8e" name="line" from-id="41cfba4e" to-id="5e187ab"><path fill="none" stroke="#222222" paint-order="fill stroke markers" d=" M 311.46518068215175 398.61222177321133 L 409.37153587236514 405.02794230561483" stroke-linecap="round" stroke-miterlimit="10" stroke-width="1.0000000000000009" stroke-dasharray=""/><g stroke="#222222" stroke-linecap="round" stroke-miterlimit="10" stroke-width="2" fill="#222222"><path fill="" stroke="" d=""/><g transform="translate(409.37153587236514,405.02794230561483) rotate(3.749183616386771,0,0) translate(-411.37153587236514,-405.02794230561483)"><path fill="" stroke="" paint-order="stroke fill markers" d=" M 409.37153587236514 405.02794230561483 L 409.37153587236514 405.02794230561483 L 404.87153587236514 403.52794230561483 L 404.87153587236514 406.52794230561483 Z"/></g></g></g><g id="61360b9" name="mind" from-id="7053822" to-id="5e187ab"><path fill="none" stroke="#222222" paint-order="fill stroke markers" d=" M 310.3957917377621 309.09729380901473 L 310.3957917377621 311.0972938090143 C 361.57730189427093 312.48257164392743 358.8273018942707 401.4825716439299 409.37153587236514 405.02794230561483" stroke-linecap="round" stroke-miterlimit="10" stroke-width="1.0000000000000009" stroke-dasharray=""/><g stroke="#222222" stroke-linecap="round" stroke-miterlimit="10" stroke-width="2" fill="#222222"><path fill="" stroke="" d=""/><g transform="translate(409.37153587236514,405.02794230561483) rotate(17.828886442622906,0,0) translate(-411.37153587236514,-405.02794230561483)"><path fill="" stroke="" paint-order="stroke fill markers" d=" M 409.37153587236514 405.02794230561483 L 409.37153587236514 405.02794230561483 L 404.87153587236514 403.52794230561483 L 404.87153587236514 406.52794230561483 Z"/></g></g></g><g id="5ef70657" name="line" from-id="5e187ab" to-id="1489752"><path fill="none" stroke="#222222" paint-order="fill stroke markers" d=" M 439.3715358723672 405.02794230561483 L 496.8347976106311 405.76172981290176" stroke-linecap="round" stroke-miterlimit="10" stroke-width="1.0000000000000009" stroke-dasharray=""/><g stroke="#222222" stroke-linecap="round" stroke-miterlimit="10" stroke-width="2" fill="#222222"><path fill="" stroke="" d=""/><g transform="translate(496.8347976106311,405.76172981290176) rotate(0.7316090479210478,0,0) translate(-498.8347976106311,-405.76172981290176)"><path fill="" stroke="" paint-order="stroke fill markers" d=" M 496.8347976106311 405.76172981290176 L 496.8347976106311 405.76172981290176 L 492.3347976106311 404.26172981290176 L 492.3347976106311 407.26172981290176 Z"/></g></g></g><g id="30c54bf6" name="networks.UPS Enterprise"><path fill="none" stroke="#222222" paint-order="fill stroke markers" d=" M 597.1730997496711 288.27307253879883 L 627.1730997496722 288.27307253879883 L 627.1730997496722 318.27307253879997 L 597.1730997496711 318.27307253879997 L 597.1730997496711 288.27307253879883 Z" stroke-miterlimit="10" stroke-dasharray=""/><path fill="none" stroke="#222222" paint-order="fill stroke markers" d=" M 621.173099749672 288.27307253879883 L 621.173099749672 316.7730725387999" stroke-miterlimit="10" stroke-dasharray=""/><path fill="none" stroke="#222222" paint-order="fill stroke markers" d=" M 615.1730997496718 288.27307253879883 L 615.1730997496718 316.7730725387999" stroke-miterlimit="10" stroke-dasharray=""/><path fill="none" stroke="#222222" paint-order="fill stroke markers" d=" M 609.1730997496716 288.27307253879883 L 609.1730997496716 316.7730725387999" stroke-miterlimit="10" stroke-dasharray=""/><path fill="none" stroke="#222222" paint-order="fill stroke markers" d=" M 597.1730997496711 316.7730725387999 L 627.1730997496722 316.7730725387999" stroke-miterlimit="10" stroke-dasharray=""/><path fill="none" stroke="#222222" paint-order="fill stroke markers" d=" M 600.1730997496712 291.87307253879897 L 606.1730997496715 291.87307253879897 L 606.1730997496715 296.0730725387991 L 600.1730997496712 296.0730725387991 L 600.1730997496712 291.87307253879897 Z" stroke-miterlimit="10" stroke-dasharray=""/><path fill="none" stroke="#222222" paint-order="fill stroke markers" d=" M 598.3730997496712 289.4730725387989 L 601.9730997496713 289.4730725387989 L 601.9730997496713 290.3730725387989 L 598.3730997496712 290.3730725387989 L 598.3730997496712 289.4730725387989 Z" stroke-miterlimit="10" stroke-dasharray=""/><path fill="none" stroke="#222222" paint-order="fill stroke markers" d=" M 607.3730997496715 300.2730725387993 L 608.2730997496716 300.2730725387993 L 608.2730997496716 305.07307253879947 L 607.3730997496715 305.07307253879947 L 607.3730997496715 300.2730725387993 Z" stroke-miterlimit="10" stroke-dasharray=""/><path fill="none" stroke="#222222" paint-order="fill stroke markers" d=" M 598.3730997496712 309.2730725387996 L 607.9730997496715 309.2730725387996 L 607.9730997496715 309.87307253879965 L 598.3730997496712 309.87307253879965 L 598.3730997496712 309.2730725387996 Z" stroke-miterlimit="10" stroke-dasharray=""/><path fill="none" stroke="#222222" paint-order="fill stroke markers" d=" M 598.3730997496712 310.7730725387997 L 607.9730997496715 310.7730725387997 L 607.9730997496715 311.3730725387997 L 598.3730997496712 311.3730725387997 L 598.3730997496712 310.7730725387997 Z" stroke-miterlimit="10" stroke-dasharray=""/><path fill="none" stroke="#222222" paint-order="fill stroke markers" d=" M 598.3730997496712 312.27307253879974 L 607.9730997496715 312.27307253879974 L 607.9730997496715 312.87307253879976 L 598.3730997496712 312.87307253879976 L 598.3730997496712 312.27307253879974 Z" stroke-miterlimit="10" stroke-dasharray=""/><path fill="none" stroke="#222222" paint-order="fill stroke markers" d=" M 598.3730997496712 313.7730725387998 L 607.9730997496715 313.7730725387998 L 607.9730997496715 314.3730725387998 L 598.3730997496712 314.3730725387998 L 598.3730997496712 313.7730725387998 Z" stroke-miterlimit="10" stroke-dasharray=""/><path fill="none" stroke="#222222" paint-order="fill stroke markers" d=" M 598.3730997496712 315.27307253879985 L 607.9730997496715 315.27307253879985 L 607.9730997496715 315.8730725387999 L 598.3730997496712 315.8730725387999 L 598.3730997496712 315.27307253879985 Z" stroke-miterlimit="10" stroke-dasharray=""/></g><g id="086999" name="line" from-id="5e187ab" to-id="54c6de"><path fill="none" stroke="#222222" paint-order="fill stroke markers" d=" M 424.3715358723665 435.0279423056169 L 425.5655822671505 487.729594687573" stroke-linecap="round" stroke-miterlimit="10" stroke-width="1.0000000000000009" stroke-dasharray=""/></g><g id="efc16d5" name="networks.Radio Tower"><path fill="none" stroke="#222222" paint-order="fill stroke markers" d="" stroke-linejoin="round" stroke-miterlimit="10" stroke-dasharray=""/><path fill="none" stroke="#222222" paint-order="fill stroke markers" d=" M 509.96746988392294 357.09710016752115 L 522.3409232022586 310.6966502237623 L 534.7143765205942 357.09710016752115" stroke-linejoin="round" stroke-miterlimit="10" stroke-dasharray=""/><path fill="none" stroke="#222222" paint-order="fill stroke markers" d=" M 534.1519468243063 354.0037368379372 L 513.3420480616509 344.72364684918546 L 529.6525092540024 338.5369201900176 L 516.9978410875227 332.35019353084977 L 526.2779310762745 326.4446817198259 L 519.8099895689627 321.10159960509003" stroke-linejoin="round" stroke-miterlimit="10" stroke-dasharray=""/><path fill="none" stroke="#222222" paint-order="fill stroke markers" d=" M 507.34092320225807 301.5290461742681 L 507.34092320225807 301.5290461742681 L 507.34092320225807 301.5290461742681 L 507.34092320225807 301.5290461742681 L 507.34092320225807 301.5290461742681 Z" stroke-linejoin="round" stroke-miterlimit="10" stroke-dasharray=""/><path fill="none" stroke="#222222" paint-order="fill stroke markers" d=" M 524.5906419874105 311.82150961633823 A 2.2497187851519365 2.2497187851519445 0 1 1 524.5906408625513 311.819259897928" stroke-linejoin="round" stroke-miterlimit="10" stroke-dasharray=""/><path fill="none" stroke="#222222" paint-order="fill stroke markers" d=" M 526.165445137017 307.9969876815799 L 526.95284671182 307.0408571978904 C 529.5252395770234 309.66522284602524 529.5252395770234 313.86531044739365 526.95284671182 316.4896760955285 L 526.165445137017 315.58978858146776 C 528.1315664105927 313.4406935720251 528.1315664105927 310.14608269102257 526.165445137017 307.9969876815799 Z" stroke-linejoin="round" stroke-miterlimit="10" stroke-dasharray=""/><path fill="none" stroke="#222222" paint-order="fill stroke markers" d=" M 528.9775936184568 305.18483920014 L 529.76499519326 304.3974376253368 C 533.764983011269 308.53864205711363 533.764983011269 315.10437717556283 529.76499519326 319.24558160733966 L 528.9775936184568 318.45818003253646 C 532.5489120791823 314.75440596057166 532.5489120791823 308.8886132721048 528.9775936184568 305.18483920014 Z" stroke-linejoin="round" stroke-miterlimit="10" stroke-dasharray=""/><path fill="none" stroke="#222222" paint-order="fill stroke markers" d=" M 531.7897420998968 302.3726907187001 L 532.5771436746999 301.5290461742681 C 535.5997453799013 304.093751329795 537.3422071429064 307.85744180623806 537.3422071429064 311.82150961633823 C 537.3422071429064 315.78557742643846 535.5997453799013 319.5492679028815 532.5771436746999 322.1139730584084 L 531.7897420998968 321.27032851397644 C 534.6629336103581 318.9757463747512 536.3359847670404 315.49851065651194 536.3359847670404 311.8215096163383 C 536.3359847670404 308.1445085761646 534.6629336103581 304.6672728579253 531.7897420998968 302.3726907187001 Z" stroke-linejoin="round" stroke-miterlimit="10" stroke-dasharray=""/><path fill="none" stroke="#222222" paint-order="fill stroke markers" d=" M 518.5164012675003 307.9969876815799 L 517.7289996926971 307.0408571978904 C 515.1566068274938 309.66522284602524 515.1566068274938 313.86531044739365 517.7289996926971 316.4896760955285 L 518.5164012675003 315.58978858146776 C 516.5502799939246 313.4406935720251 516.5502799939246 310.14608269102257 518.5164012675003 307.9969876815799 Z" stroke-linejoin="round" stroke-miterlimit="10" stroke-dasharray=""/><path fill="none" stroke="#222222" paint-order="fill stroke markers" d=" M 515.7042527860604 305.18483920014 L 514.9168512112573 304.3974376253368 C 510.91686339324826 308.53864205711363 510.91686339324826 315.10437717556283 514.9168512112573 319.24558160733966 L 515.7042527860604 318.45818003253646 C 512.1329343253349 314.75440596057166 512.1329343253349 308.8886132721048 515.7042527860604 305.18483920014 Z" stroke-linejoin="round" stroke-miterlimit="10" stroke-dasharray=""/><path fill="none" stroke="#222222" paint-order="fill stroke markers" d=" M 512.8921043046205 302.3726907187001 L 512.1047027298173 301.5290461742681 C 509.0821010246159 304.093751329795 507.3396392616107 307.85744180623806 507.3396392616107 311.8215096163383 C 507.3396392616107 315.78557742643846 509.0821010246159 319.5492679028815 512.1047027298173 322.1139730584084 L 512.8921043046205 321.27032851397644 C 510.0189127941592 318.9757463747512 508.3458616374769 315.49851065651194 508.3458616374769 311.8215096163383 C 508.3458616374769 308.1445085761646 510.0189127941592 304.6672728579253 512.8921043046205 302.3726907187001 Z" stroke-linejoin="round" stroke-miterlimit="10" stroke-dasharray=""/><path fill="none" stroke="#222222" paint-order="fill stroke markers" d="" stroke-linejoin="round" stroke-miterlimit="10" stroke-dasharray=""/></g><g id="56e04efa" name="networks.Monitor"><path fill="none" stroke="#222222" paint-order="fill stroke markers" d=" M 600.7588057103776 445.1479977502007 L 630.7588057103786 445.1479977502007 L 630.7588057103786 462.0229977502013 L 600.7588057103776 462.0229977502013 L 600.7588057103776 445.1479977502007 Z" stroke-miterlimit="10" stroke-dasharray="" stroke-linejoin="round"/><path fill="none" stroke="#222222" paint-order="fill stroke markers" d=" M 609.9463057103779 466.41049775020144 L 621.5338057103784 466.41049775020144 L 623.8213057103784 468.9604977502015 L 607.6963057103778 468.9604977502015 Z" stroke-linejoin="round" stroke-miterlimit="10" stroke-dasharray=""/><path fill="none" stroke="#222222" paint-order="fill stroke markers" d=" M 612.008805710378 462.0229977502013 L 619.5088057103783 462.0229977502013 L 619.5088057103783 467.64799775020145 L 612.008805710378 467.64799775020145 L 612.008805710378 462.0229977502013 Z" stroke-linejoin="round" stroke-miterlimit="10" stroke-dasharray=""/><path fill="none" stroke="#222222" paint-order="fill stroke markers" d=" M 601.8838057103776 446.2729977502008 L 629.2588057103786 446.2729977502008 L 629.2588057103786 460.8979977502013 L 601.8838057103776 460.8979977502013 L 601.8838057103776 446.2729977502008 Z" stroke-linejoin="round" stroke-miterlimit="10" stroke-dasharray=""/></g><g id="18f58687" name="networks.Monitor"><path fill="none" stroke="#222222" paint-order="fill stroke markers" d=" M 600.7588057103776 488.90748640786944 L 630.7588057103786 488.90748640786944 L 630.7588057103786 505.78248640787 L 600.7588057103776 505.78248640787 L 600.7588057103776 488.90748640786944 Z" stroke-miterlimit="10" stroke-dasharray="" stroke-linejoin="round"/><path fill="none" stroke="#222222" paint-order="fill stroke markers" d=" M 609.9463057103779 510.16998640787017 L 621.5338057103784 510.16998640787017 L 623.8213057103784 512.7199864078702 L 607.6963057103778 512.7199864078702 Z" stroke-linejoin="round" stroke-miterlimit="10" stroke-dasharray=""/><path fill="none" stroke="#222222" paint-order="fill stroke markers" d=" M 612.008805710378 505.78248640787 L 619.5088057103783 505.78248640787 L 619.5088057103783 511.4074864078702 L 612.008805710378 511.4074864078702 L 612.008805710378 505.78248640787 Z" stroke-linejoin="round" stroke-miterlimit="10" stroke-dasharray=""/><path fill="none" stroke="#222222" paint-order="fill stroke markers" d=" M 601.8838057103776 490.0324864078695 L 629.2588057103786 490.0324864078695 L 629.2588057103786 504.65748640787 L 601.8838057103776 504.65748640787 L 601.8838057103776 490.0324864078695 Z" stroke-linejoin="round" stroke-miterlimit="10" stroke-dasharray=""/></g><g id="147f30dd" name="line" from-id="1489752" to-id="efc16d5"><path fill="none" stroke="#222222" paint-order="fill stroke markers" d=" M 523.0347976106332 396.01172981290074 L 522.3409232022584 357.09710016752103" stroke-linecap="round" stroke-miterlimit="10" stroke-width="1.0000000000000009" stroke-dasharray=""/><g stroke="#222222" stroke-linecap="round" stroke-miterlimit="10" stroke-width="2" fill="#222222"><path fill="" stroke="" d=""/><g transform="translate(522.3409232022584,357.09710016752103) rotate(-91.02151460822145,0,0) translate(-524.3409232022584,-357.09710016752103)"><path fill="" stroke="" paint-order="stroke fill markers" d=" M 522.3409232022584 357.09710016752103 L 522.3409232022584 357.09710016752103 L 517.8409232022584 355.59710016752103 L 517.8409232022584 358.59710016752103 Z"/></g></g></g><g id="249adb5b" name="networks.Load Balancer"><path fill="none" stroke="#222222" paint-order="fill stroke markers" d=" M 589.3765807103772 395.05804006548635 L 648.0285307103791 395.05804006548635 L 648.0285307103791 395.05804006548635 A 0.11777500000000395 0.11777500000000395 0 0 1 648.1463057103791 395.17581506548635 L 648.1463057103791 413.5286271344525 L 648.1463057103791 413.5286271344525 A 0.11777500000000395 0.11777500000000395 0 0 1 648.0285307103791 413.6464021344525 L 589.3825332891354 416.6142786292612 L 589.3825332891354 416.6142786292612 A 0.11777500000000395 0.11777500000000395 0 0 1 589.2588057103771 416.4966541529345 L 589.2588057103771 395.17581506548635 L 589.2588057103771 395.17581506548635 A 0.11777500000000395 0.11777500000000395 0 0 1 589.3765807103772 395.05804006548635 Z" stroke-miterlimit="10" stroke-dasharray=""/><path fill="none" stroke="#222222" paint-order="fill stroke markers" d=" M 595.1475557103773 413.6464021344525 L 642.2575557103789 413.6464021344525 L 642.2575557103789 416.6205400654871 L 595.1475557103773 416.6205400654871 L 595.1475557103773 413.6464021344525 Z" stroke-miterlimit="10" stroke-dasharray=""/><path fill="none" stroke="#222222" paint-order="fill stroke markers" d=" M 591.0254307103772 400.2627814447969 L 594.5586807103773 400.2627814447969 L 594.5586807103773 402.4933848930728 L 593.3809307103772 402.4933848930728 L 593.3809307103772 403.23691937583146 L 592.2031807103773 403.23691937583146 L 592.2031807103773 402.4933848930728 L 591.0254307103772 402.4933848930728 Z" stroke-miterlimit="10" stroke-dasharray=""/><path fill="none" stroke="#222222" paint-order="fill stroke markers" d="" stroke-miterlimit="10" stroke-dasharray=""/><path fill="none" stroke="none"/><path fill="none" stroke="none"/><path fill="none" stroke="#222222" paint-order="fill stroke markers" d=" M 634.6021807103787 404.3522210999694 A 1.1777500000000394 1.4870689655172924 0 1 1 634.6021801215037 404.35073403125176" stroke-miterlimit="10" stroke-dasharray=""/><path fill="none" stroke="#222222" paint-order="fill stroke markers" d=" M 596.0308682103773 400.2627814447969 L 599.5641182103775 400.2627814447969 L 599.5641182103775 402.4933848930728 L 598.3863682103774 402.4933848930728 L 598.3863682103774 403.23691937583146 L 597.2086182103774 403.23691937583146 L 597.2086182103774 402.4933848930728 L 596.0308682103773 402.4933848930728 Z" stroke-miterlimit="10" stroke-dasharray=""/><path fill="none" stroke="#222222" paint-order="fill stroke markers" d=" M 601.0363057103775 400.2627814447969 L 604.5695557103777 400.2627814447969 L 604.5695557103777 402.4933848930728 L 603.3918057103776 402.4933848930728 L 603.3918057103776 403.23691937583146 L 602.2140557103776 403.23691937583146 L 602.2140557103776 402.4933848930728 L 601.0363057103775 402.4933848930728 Z" stroke-miterlimit="10" stroke-dasharray=""/><path fill="none" stroke="#222222" paint-order="fill stroke markers" d=" M 606.0417432103777 400.2627814447969 L 609.5749932103778 400.2627814447969 L 609.5749932103778 402.4933848930728 L 608.3972432103778 402.4933848930728 L 608.3972432103778 403.23691937583146 L 607.2194932103778 403.23691937583146 L 607.2194932103778 402.4933848930728 L 606.0417432103777 402.4933848930728 Z" stroke-miterlimit="10" stroke-dasharray=""/><path fill="none" stroke="#222222" paint-order="fill stroke markers" d=" M 611.0471807103779 400.2627814447969 L 614.580430710378 400.2627814447969 L 614.580430710378 402.4933848930728 L 613.4026807103779 402.4933848930728 L 613.4026807103779 403.23691937583146 L 612.2249307103779 403.23691937583146 L 612.2249307103779 402.4933848930728 L 611.0471807103779 402.4933848930728 Z" stroke-miterlimit="10" stroke-dasharray=""/><path fill="none" stroke="#222222" paint-order="fill stroke markers" d=" M 616.052618210378 400.2627814447969 L 619.5858682103782 400.2627814447969 L 619.5858682103782 402.4933848930728 L 618.4081182103781 402.4933848930728 L 618.4081182103781 403.23691937583146 L 617.2303682103781 403.23691937583146 L 617.2303682103781 402.4933848930728 L 616.052618210378 402.4933848930728 Z" stroke-miterlimit="10" stroke-dasharray=""/><path fill="none" stroke="#222222" paint-order="fill stroke markers" d=" M 621.0580557103782 400.2627814447969 L 624.5913057103784 400.2627814447969 L 624.5913057103784 402.4933848930728 L 623.4135557103783 402.4933848930728 L 623.4135557103783 403.23691937583146 L 622.2358057103783 403.23691937583146 L 622.2358057103783 402.4933848930728 L 621.0580557103782 402.4933848930728 Z" stroke-miterlimit="10" stroke-dasharray=""/><path fill="none" stroke="#222222" paint-order="fill stroke markers" d=" M 626.0634932103784 400.2627814447969 L 629.5967432103785 400.2627814447969 L 629.5967432103785 402.4933848930728 L 628.4189932103784 402.4933848930728 L 628.4189932103784 403.23691937583146 L 627.2412432103785 403.23691937583146 L 627.2412432103785 402.4933848930728 L 626.0634932103784 402.4933848930728 Z" stroke-miterlimit="10" stroke-dasharray=""/><path fill="none" stroke="#222222" paint-order="fill stroke markers" d="" stroke-miterlimit="10" stroke-dasharray=""/><path fill="none" stroke="#222222" paint-order="fill stroke markers" d=" M 641.0798057103789 400.2627814447969 L 641.0798057103789 408.441660755142" stroke-miterlimit="10" stroke-dasharray=""/><path fill="none" stroke="#222222" paint-order="fill stroke markers" d=" M 639.9020557103788 401.7498504103142 L 641.0798057103789 400.2627814447969 L 642.2575557103789 401.7498504103142" stroke-miterlimit="10" stroke-dasharray=""/><path fill="none" stroke="#222222" paint-order="fill stroke markers" d=" M 641.0798057103789 406.21105730686605 L 638.1354307103787 402.4933848930728" stroke-miterlimit="10" stroke-dasharray=""/><path fill="none" stroke="#222222" paint-order="fill stroke markers" d=" M 641.0798057103789 406.21105730686605 L 644.024180710379 402.4933848930728" stroke-miterlimit="10" stroke-dasharray=""/><path fill="none" stroke="#222222" paint-order="fill stroke markers" d=" M 638.1354307103787 404.3522210999694 L 638.1354307103787 402.4933848930728 L 639.6076182103789 402.4933848930728" stroke-miterlimit="10" stroke-dasharray=""/><path fill="none" stroke="#222222" paint-order="fill stroke markers" d=" M 642.5519932103789 402.4933848930728 L 644.024180710379 402.4933848930728 L 644.024180710379 404.3522210999694" stroke-miterlimit="10" stroke-dasharray=""/></g><g id="3de14a12" name="curve" from-id="1489752" to-id="41dbd91"><path fill="none" stroke="#222222" paint-order="fill stroke markers" d=" M 549.2347976106339 405.7617298129011 C 571.0529794288162 405.7617298129011 576.1906238921943 353.35686937921577 598.0088057103767 353.35686937921577" stroke-linecap="round" stroke-miterlimit="10" stroke-width="1.0000000000000009" stroke-dasharray=""/><g stroke="#222222" stroke-linecap="round" stroke-miterlimit="10" stroke-width="2" fill="#222222"><path fill="" stroke="" d=""/><g transform="translate(598.0088057103767,353.35686937921577) rotate(-8.234780456057228,0,0) translate(-600.0088057103767,-353.35686937921577)"><path fill="" stroke="" paint-order="stroke fill markers" d=" M 598.0088057103767 353.35686937921577 L 598.0088057103767 353.35686937921577 L 593.5088057103767 351.85686937921577 L 593.5088057103767 354.85686937921577 Z"/></g></g></g><g id="5448213" name="curve" from-id="1489752" to-id="56e04efa"><path fill="none" stroke="#222222" paint-order="fill stroke markers" d=" M 549.2347976106339 405.7617298129011 C 575.9014642773012 405.7617298129011 574.0921390437102 457.0542477502007 600.7588057103776 457.0542477502007" stroke-linecap="round" stroke-miterlimit="10" stroke-width="1.0000000000000009" stroke-dasharray=""/><g stroke="#222222" stroke-linecap="round" stroke-miterlimit="10" stroke-width="2" fill="#222222"><path fill="" stroke="" d=""/><g transform="translate(600.7588057103776,457.0542477502007) rotate(6.732780499023513,0,0) translate(-602.7588057103776,-457.0542477502007)"><path fill="" stroke="" paint-order="stroke fill markers" d=" M 600.7588057103776 457.0542477502007 L 600.7588057103776 457.0542477502007 L 596.2588057103776 455.5542477502007 L 596.2588057103776 458.5542477502007 Z"/></g></g></g><g id="7bf61a55" name="curve" from-id="1489752" to-id="18f58687"><path fill="none" stroke="#222222" paint-order="fill stroke markers" d=" M 549.2347976106339 405.7617298129011 C 575.9014642773012 405.7617298129011 574.0921390437102 500.81373640787046 600.7588057103776 500.81373640787046" stroke-linecap="round" stroke-miterlimit="10" stroke-width="1.0000000000000009" stroke-dasharray=""/><g stroke="#222222" stroke-linecap="round" stroke-miterlimit="10" stroke-width="2" fill="#222222"><path fill="" stroke="" d=""/><g transform="translate(600.7588057103776,500.81373640787046) rotate(12.340091751826737,0,0) translate(-602.7588057103776,-500.81373640787046)"><path fill="" stroke="" paint-order="stroke fill markers" d=" M 600.7588057103776 500.81373640787046 L 600.7588057103776 500.81373640787046 L 596.2588057103776 499.31373640787046 L 596.2588057103776 502.31373640787046 Z"/></g></g></g><g id="9d6cda1" name="curve" from-id="1489752" to-id="249adb5b"><path fill="none" stroke="#222222" paint-order="fill stroke markers" d=" M 549.2347976106339 405.7617298129011 C 562.5984339742711 405.7617298129011 575.895169346741 405.83929006548635 589.2588057103771 405.83929006548635" stroke-linecap="round" stroke-miterlimit="10" stroke-width="1.0000000000000009" stroke-dasharray=""/><g stroke="#222222" stroke-linecap="round" stroke-miterlimit="10" stroke-width="2" fill="#222222"><path fill="" stroke="" d=""/><g transform="translate(589.2588057103771,405.83929006548635) rotate(0.019159532797033495,0,0) translate(-591.2588057103771,-405.83929006548635)"><path fill="" stroke="" paint-order="stroke fill markers" d=" M 589.2588057103771 405.83929006548635 L 589.2588057103771 405.83929006548635 L 584.7588057103771 404.33929006548635 L 584.7588057103771 407.33929006548635 Z"/></g></g></g><g id="ac7b73" name="networks.Monitor"><path fill="none" stroke="#222222" paint-order="fill stroke markers" d=" M 712.1145618565413 393.93304006548647 L 742.1145618565421 393.93304006548647 L 742.1145618565421 410.8080400654869 L 712.1145618565413 410.8080400654869 L 712.1145618565413 393.93304006548647 Z" stroke-miterlimit="10" stroke-dasharray="" stroke-linejoin="round"/><path fill="none" stroke="#222222" paint-order="fill stroke markers" d=" M 721.3020618565415 415.195540065487 L 732.8895618565418 415.195540065487 L 735.177061856542 417.7455400654871 L 719.0520618565415 417.7455400654871 Z" stroke-linejoin="round" stroke-miterlimit="10" stroke-dasharray=""/><path fill="none" stroke="#222222" paint-order="fill stroke markers" d=" M 723.3645618565416 410.8080400654869 L 730.8645618565419 410.8080400654869 L 730.8645618565419 416.4330400654871 L 723.3645618565416 416.4330400654871 L 723.3645618565416 410.8080400654869 Z" stroke-linejoin="round" stroke-miterlimit="10" stroke-dasharray=""/><path fill="none" stroke="#222222" paint-order="fill stroke markers" d=" M 713.2395618565413 395.0580400654865 L 740.6145618565421 395.0580400654865 L 740.6145618565421 409.6830400654869 L 713.2395618565413 409.6830400654869 L 713.2395618565413 395.0580400654865 Z" stroke-linejoin="round" stroke-miterlimit="10" stroke-dasharray=""/></g><g id="0327456" name="networks.Monitor"><path fill="none" stroke="#222222" paint-order="fill stroke markers" d=" M 712.1145618565413 337.99063037441306 L 742.1145618565421 337.99063037441306 L 742.1145618565421 354.8656303744135 L 712.1145618565413 354.8656303744135 L 712.1145618565413 337.99063037441306 Z" stroke-miterlimit="10" stroke-dasharray="" stroke-linejoin="round"/><path fill="none" stroke="#222222" paint-order="fill stroke markers" d=" M 721.3020618565415 359.2531303744136 L 732.8895618565418 359.2531303744136 L 735.177061856542 361.8031303744137 L 719.0520618565415 361.8031303744137 Z" stroke-linejoin="round" stroke-miterlimit="10" stroke-dasharray=""/><path fill="none" stroke="#222222" paint-order="fill stroke markers" d=" M 723.3645618565416 354.8656303744135 L 730.8645618565419 354.8656303744135 L 730.8645618565419 360.4906303744137 L 723.3645618565416 360.4906303744137 L 723.3645618565416 354.8656303744135 Z" stroke-linejoin="round" stroke-miterlimit="10" stroke-dasharray=""/><path fill="none" stroke="#222222" paint-order="fill stroke markers" d=" M 713.2395618565413 339.1156303744131 L 740.6145618565421 339.1156303744131 L 740.6145618565421 353.7406303744135 L 713.2395618565413 353.7406303744135 L 713.2395618565413 339.1156303744131 Z" stroke-linejoin="round" stroke-miterlimit="10" stroke-dasharray=""/></g><g id="1332fb20" name="networks.Monitor"><path fill="none" stroke="#222222" paint-order="fill stroke markers" d=" M 712.1145618565413 445.70588166724053 L 742.1145618565421 445.70588166724053 L 742.1145618565421 462.580881667241 L 712.1145618565413 462.580881667241 L 712.1145618565413 445.70588166724053 Z" stroke-miterlimit="10" stroke-dasharray="" stroke-linejoin="round"/><path fill="none" stroke="#222222" paint-order="fill stroke markers" d=" M 721.3020618565415 466.9683816672411 L 732.8895618565418 466.9683816672411 L 735.177061856542 469.51838166724116 L 719.0520618565415 469.51838166724116 Z" stroke-linejoin="round" stroke-miterlimit="10" stroke-dasharray=""/><path fill="none" stroke="#222222" paint-order="fill stroke markers" d=" M 723.3645618565416 462.580881667241 L 730.8645618565419 462.580881667241 L 730.8645618565419 468.20588166724116 L 723.3645618565416 468.20588166724116 L 723.3645618565416 462.580881667241 Z" stroke-linejoin="round" stroke-miterlimit="10" stroke-dasharray=""/><path fill="none" stroke="#222222" paint-order="fill stroke markers" d=" M 713.2395618565413 446.8308816672406 L 740.6145618565421 446.8308816672406 L 740.6145618565421 461.455881667241 L 713.2395618565413 461.455881667241 L 713.2395618565413 446.8308816672406 Z" stroke-linejoin="round" stroke-miterlimit="10" stroke-dasharray=""/></g><g id="38d26474" name="curve" from-id="249adb5b" to-id="ac7b73"><path fill="none" stroke="#222222" paint-order="fill stroke markers" d=" M 648.1463057103806 405.83929006548635 C 669.4796390437145 405.83929006548635 690.7812285232067 405.83929006548635 712.1145618565413 405.83929006548635" stroke-linecap="round" stroke-miterlimit="10" stroke-width="1.0000000000000009" stroke-dasharray=""/><g stroke="#222222" stroke-linecap="round" stroke-miterlimit="10" stroke-width="2" fill="#222222"><path fill="" stroke="" d=""/><g transform="translate(712.1145618565413,405.83929006548635) rotate(-8.482206146931766e-13,0,0) translate(-714.1145618565413,-405.83929006548635)"><path fill="" stroke="" paint-order="stroke fill markers" d=" M 712.1145618565413 405.83929006548635 L 712.1145618565413 405.83929006548635 L 707.6145618565413 404.33929006548635 L 707.6145618565413 407.33929006548635 Z"/></g></g></g><g id="7faea13d" name="curve" from-id="249adb5b" to-id="0327456"><path fill="none" stroke="#222222" paint-order="fill stroke markers" d=" M 648.1463057103806 405.83929006548635 C 674.812972377048 405.83929006548635 685.4478951898741 349.89688037441266 712.1145618565413 349.89688037441266" stroke-linecap="round" stroke-miterlimit="10" stroke-width="1.0000000000000009" stroke-dasharray=""/><g stroke="#222222" stroke-linecap="round" stroke-miterlimit="10" stroke-width="2" fill="#222222"><path fill="" stroke="" d=""/><g transform="translate(712.1145618565413,349.89688037441266) rotate(-7.134610239962156,0,0) translate(-714.1145618565413,-349.89688037441266)"><path fill="" stroke="" paint-order="stroke fill markers" d=" M 712.1145618565413 349.89688037441266 L 712.1145618565413 349.89688037441266 L 707.6145618565413 348.39688037441266 L 707.6145618565413 351.39688037441266 Z"/></g></g></g><g id="1a63f35" name="curve" from-id="249adb5b" to-id="1332fb20"><path fill="none" stroke="#222222" paint-order="fill stroke markers" d=" M 648.1463057103806 405.83929006548635 C 674.812972377048 405.83929006548635 685.4478951898741 457.61213166724053 712.1145618565413 457.61213166724053" stroke-linecap="round" stroke-miterlimit="10" stroke-width="1.0000000000000009" stroke-dasharray=""/><g stroke="#222222" stroke-linecap="round" stroke-miterlimit="10" stroke-width="2" fill="#222222"><path fill="" stroke="" d=""/><g transform="translate(712.1145618565413,457.61213166724053) rotate(6.607733766809016,0,0) translate(-714.1145618565413,-457.61213166724053)"><path fill="" stroke="" paint-order="stroke fill markers" d=" M 712.1145618565413 457.61213166724053 L 712.1145618565413 457.61213166724053 L 707.6145618565413 456.11213166724053 L 707.6145618565413 459.11213166724053 Z"/></g></g></g><g id="bc81cf7" name="line" from-id="b0900b4" to-id="7053822"><path fill="none" stroke="#222222" paint-order="fill stroke markers" d=" M 136.5439685609283 397.6828288564168 L 300.19579173776174 309.09729380901473" stroke-linecap="round" stroke-miterlimit="10" stroke-width="1.0000000000000009" stroke-dasharray="10,10"/><g stroke="#222222" stroke-linecap="round" stroke-miterlimit="10" stroke-width="2" fill="#222222"><path fill="" stroke="" d=""/><g transform="translate(300.19579173776174,309.09729380901473) rotate(-28.42690082560524,0,0) translate(-302.19579173776174,-309.09729380901473)"><path fill="" stroke="" paint-order="stroke fill markers" d=" M 300.19579173776174 309.09729380901473 L 300.19579173776174 309.09729380901473 L 295.69579173776174 307.59729380901473 L 295.69579173776174 310.59729380901473 Z"/></g></g></g><g id="1cac858c" name="curve" from-id="1489752" to-id="30c54bf6"><path fill="none" stroke="#222222" paint-order="fill stroke markers" d=" M 549.2347976106339 405.76172981290176 C 566.3776547534919 405.76172981290176 580.0302426068141 303.2730725387993 597.1730997496711 303.2730725387993" stroke-linecap="round" stroke-miterlimit="10" stroke-width="1.0000000000000009" stroke-dasharray=""/><g stroke="#222222" stroke-linecap="round" stroke-miterlimit="10" stroke-width="2" fill="#222222"><path fill="" stroke="" d=""/><g transform="translate(597.1730997496711,303.2730725387993) rotate(-19.210801795524713,0,0) translate(-599.1730997496711,-303.2730725387993)"><path fill="" stroke="" paint-order="stroke fill markers" d=" M 597.1730997496711 303.2730725387993 L 597.1730997496711 303.2730725387993 L 592.6730997496711 301.7730725387993 L 592.6730997496711 304.7730725387993 Z"/></g></g></g><g id="1fa4f57b" name="curve" from-id="52a1ff95" to-id="5e187ab"><path fill="none" stroke="#222222" paint-order="fill stroke markers" d=" M 312.0106352276058 485.4202304312249 C 354.92730189427084 486.38376212012156 363.92730189427084 401.6337621201202 409.37153587236514 405.02794230561483" stroke-linecap="round" stroke-miterlimit="10" stroke-width="1.0000000000000009" stroke-dasharray=""/><g stroke="#222222" stroke-linecap="round" stroke-miterlimit="10" stroke-width="2" fill="#222222"><path fill="" stroke="" d=""/><g transform="translate(409.37153587236514,405.02794230561483) rotate(-2.227467559662024,0,0) translate(-411.37153587236514,-405.02794230561483)"><path fill="" stroke="" paint-order="stroke fill markers" d=" M 409.37153587236514 405.02794230561483 L 409.37153587236514 405.02794230561483 L 404.87153587236514 403.52794230561483 L 404.87153587236514 406.52794230561483 Z"/></g></g></g><g id="456464a" name="text" text="AP&#10;172.0.0.1"><g><path fill="none" stroke="none"/><text fill="#222222" stroke="none" font-family="&quot;Hiragino Sans GB&quot;, &quot;Microsoft YaHei&quot;, &quot;Helvetica Neue&quot;, Helvetica, Arial " font-size="8.571428571428742px" font-style="normal" font-weight="bold" text-decoration="normal" x="132.99200496594779" y="443.4199945447735" text-anchor="middle" dominant-baseline="central">AP</text><text fill="#222222" stroke="none" font-family="&quot;Hiragino Sans GB&quot;, &quot;Microsoft YaHei&quot;, &quot;Helvetica Neue&quot;, Helvetica, Arial " font-size="8.571428571428742px" font-style="normal" font-weight="bold" text-decoration="normal" x="132.99200496594779" y="456.2771374019166" text-anchor="middle" dominant-baseline="central">172.0.0.1</text></g></g><g id="71f984c3" name="text" text="AP&#10;192.168.11.1"><g><path fill="none" stroke="none"/><text fill="#222222" stroke="none" font-family="&quot;Hiragino Sans GB&quot;, &quot;Microsoft YaHei&quot;, &quot;Helvetica Neue&quot;, Helvetica, Arial " font-size="10.285714285714493px" font-style="normal" font-weight="bold" text-decoration="normal" x="305.14195195560706" y="346.767901174841" text-anchor="middle" dominant-baseline="central">AP</text><text fill="#222222" stroke="none" font-family="&quot;Hiragino Sans GB&quot;, &quot;Microsoft YaHei&quot;, &quot;Helvetica Neue&quot;, Helvetica, Arial " font-size="10.285714285714493px" font-style="normal" font-weight="bold" text-decoration="normal" x="305.14195195560706" y="362.1964726034127" text-anchor="middle" dominant-baseline="central">192.168.11.1</text></g></g><g id="4d645303" name="text" text="AP&#10;192.168.12.1"><g><path fill="none" stroke="none"/><text fill="#222222" stroke="none" font-family="&quot;Hiragino Sans GB&quot;, &quot;Microsoft YaHei&quot;, &quot;Helvetica Neue&quot;, Helvetica, Arial " font-size="10.285714285714493px" font-style="normal" font-weight="bold" text-decoration="normal" x="306.48051351495394" y="435.36593462273555" text-anchor="middle" dominant-baseline="central">AP</text><text fill="#222222" stroke="none" font-family="&quot;Hiragino Sans GB&quot;, &quot;Microsoft YaHei&quot;, &quot;Helvetica Neue&quot;, Helvetica, Arial " font-size="10.285714285714493px" font-style="normal" font-weight="bold" text-decoration="normal" x="306.48051351495394" y="450.7945060513073" text-anchor="middle" dominant-baseline="central">192.168.12.1</text></g></g><g id="2419fbca" name="text" text="AP&#10;192.168.13.1"><g><path fill="none" stroke="none"/><text fill="#222222" stroke="none" font-family="&quot;Hiragino Sans GB&quot;, &quot;Microsoft YaHei&quot;, &quot;Helvetica Neue&quot;, Helvetica, Arial " font-size="10.285714285714493px" font-style="normal" font-weight="bold" text-decoration="normal" x="306.46616169030824" y="521.854814640129" text-anchor="middle" dominant-baseline="central">AP</text><text fill="#222222" stroke="none" font-family="&quot;Hiragino Sans GB&quot;, &quot;Microsoft YaHei&quot;, &quot;Helvetica Neue&quot;, Helvetica, Arial " font-size="10.285714285714493px" font-style="normal" font-weight="bold" text-decoration="normal" x="306.46616169030824" y="537.2833860687008" text-anchor="middle" dominant-baseline="central">192.168.13.1</text></g></g><g id="34e20248" name="text" text=""><g><path fill="none" stroke="none"/><text fill="#222222" stroke="none" font-family="&quot;Hiragino Sans GB&quot;, &quot;Microsoft YaHei&quot;, &quot;Helvetica Neue&quot;, Helvetica, Arial " font-size="10.285714285714493px" font-style="normal" font-weight="bold" text-decoration="normal" x="426.1677351168821" y="533.5537504999502" text-anchor="middle" dominant-baseline="central"></text></g></g><g id="32eec6d" name="text" text="&#10;192.168.233.1"><g><path fill="none" stroke="none"/><text fill="#222222" stroke="none" font-family="&quot;Hiragino Sans GB&quot;, &quot;Microsoft YaHei&quot;, &quot;Helvetica Neue&quot;, Helvetica, Arial " font-size="10.285714285714493px" font-style="normal" font-weight="bold" text-decoration="normal" x="423.9016125155242" y="327.64972653640274" text-anchor="middle" dominant-baseline="central"></text><text fill="#222222" stroke="none" font-family="&quot;Hiragino Sans GB&quot;, &quot;Microsoft YaHei&quot;, &quot;Helvetica Neue&quot;, Helvetica, Arial " font-size="10.285714285714493px" font-style="normal" font-weight="bold" text-decoration="normal" x="423.9016125155242" y="343.07829796497447" text-anchor="middle" dominant-baseline="central"></text><text fill="#222222" stroke="none" font-family="&quot;Hiragino Sans GB&quot;, &quot;Microsoft YaHei&quot;, &quot;Helvetica Neue&quot;, Helvetica, Arial " font-size="10.285714285714493px" font-style="normal" font-weight="bold" text-decoration="normal" x="423.9016125155242" y="358.5068693935462" text-anchor="middle" dominant-baseline="central">192.168.233.1</text></g></g><g id="8278458" name="text" text="WIFI AP mutel&#10;"><g><path fill="none" stroke="none"/><text fill="#222222" stroke="none" font-family="&quot;Hiragino Sans GB&quot;, &quot;Microsoft YaHei&quot;, &quot;Helvetica Neue&quot;, Helvetica, Arial " font-size="10.285714285714493px" font-style="normal" font-weight="bold" text-decoration="normal" x="522.5850340939458" y="277.450282142083" text-anchor="middle" dominant-baseline="central">WIFI AP </text><text fill="#222222" stroke="none" font-family="&quot;Hiragino Sans GB&quot;, &quot;Microsoft YaHei&quot;, &quot;Helvetica Neue&quot;, Helvetica, Arial " font-size="10.285714285714493px" font-style="normal" font-weight="bold" text-decoration="normal" x="522.5850340939458" y="292.8788535706547" text-anchor="middle" dominant-baseline="central">mutel</text><text fill="#222222" stroke="none" font-family="&quot;Hiragino Sans GB&quot;, &quot;Microsoft YaHei&quot;, &quot;Helvetica Neue&quot;, Helvetica, Arial " font-size="10.285714285714493px" font-style="normal" font-weight="bold" text-decoration="normal" x="522.5850340939458" y="308.30742499922644" text-anchor="middle" dominant-baseline="central"></text></g></g><g id="fa7ecc2" name="text" text=""><g><path fill="none" stroke="none"/><text fill="#222222" stroke="none" font-family="&quot;Hiragino Sans GB&quot;, &quot;Microsoft YaHei&quot;, &quot;Helvetica Neue&quot;, Helvetica, Arial " font-size="10.285714285714493px" font-style="normal" font-weight="bold" text-decoration="normal" x="646.8072577154954" y="303.90120732354956" text-anchor="middle" dominant-baseline="central"></text></g></g><g id="5b3f23df" name="text" text="8"><g><path fill="none" stroke="none"/><text fill="#222222" stroke="none" font-family="&quot;Hiragino Sans GB&quot;, &quot;Microsoft YaHei&quot;, &quot;Helvetica Neue&quot;, Helvetica, Arial " font-size="6.272727272727294px" font-style="normal" font-weight="bold" text-decoration="normal" x="519.849006043221" y="421.6468212946473" text-anchor="middle" dominant-baseline="central">8</text></g></g><g id="aeb0ba8" name="text" text="5"><g><path fill="none" stroke="none"/><text fill="#222222" stroke="none" font-family="&quot;Hiragino Sans GB&quot;, &quot;Microsoft YaHei&quot;, &quot;Helvetica Neue&quot;, Helvetica, Arial " font-size="6.428571428571451px" font-style="normal" font-weight="bold" text-decoration="normal" x="618.2387420861032" y="421.72927414200717" text-anchor="middle" dominant-baseline="central">5</text></g></g><g id="b330e95" name="text" text=""><g><path fill="none" stroke="none"/><text fill="#222222" stroke="none" font-family="&quot;Hiragino Sans GB&quot;, &quot;Microsoft YaHei&quot;, &quot;Helvetica Neue&quot;, Helvetica, Arial " font-size="10.285714285714493px" font-style="normal" font-weight="bold" text-decoration="normal" x="445.7565213306659" y="447.3026372239168" text-anchor="middle" dominant-baseline="central"></text></g></g><g id="084e8c2" name="text" text="A"><g><path fill="none" stroke="none"/><text fill="#222222" stroke="none" font-family="&quot;Hiragino Sans GB&quot;, &quot;Microsoft YaHei&quot;, &quot;Helvetica Neue&quot;, Helvetica, Arial " font-size="10.285714285714493px" font-style="normal" font-weight="bold" text-decoration="normal" x="651.0676768418243" y="350.18823999584384" text-anchor="middle" dominant-baseline="central">A</text></g></g><g id="1e7dffb2" name="text" text="B"><g><path fill="none" stroke="none"/><text fill="#222222" stroke="none" font-family="&quot;Hiragino Sans GB&quot;, &quot;Microsoft YaHei&quot;, &quot;Helvetica Neue&quot;, Helvetica, Arial " font-size="10.285714285714493px" font-style="normal" font-weight="bold" text-decoration="normal" x="655.5074537316008" y="454.2170965002729" text-anchor="middle" dominant-baseline="central">B</text></g></g><g id="59d8fd9d" name="text" text="C"><g><path fill="none" stroke="none"/><text fill="#222222" stroke="none" font-family="&quot;Hiragino Sans GB&quot;, &quot;Microsoft YaHei&quot;, &quot;Helvetica Neue&quot;, Helvetica, Arial " font-size="10.285714285714493px" font-style="normal" font-weight="bold" text-decoration="normal" x="655.6559237784927" y="497.71916282475297" text-anchor="middle" dominant-baseline="central">C</text></g></g><g id="39c34670" name="text" text="D"><g><path fill="none" stroke="none"/><text fill="#222222" stroke="none" font-family="&quot;Hiragino Sans GB&quot;, &quot;Microsoft YaHei&quot;, &quot;Helvetica Neue&quot;, Helvetica, Arial " font-size="10.285714285714493px" font-style="normal" font-weight="bold" text-decoration="normal" x="767.1222552061687" y="346.5379690185587" text-anchor="middle" dominant-baseline="central">D</text></g></g><g id="5389d5b3" name="text" text="F"><g><path fill="none" stroke="none"/><text fill="#222222" stroke="none" font-family="&quot;Hiragino Sans GB&quot;, &quot;Microsoft YaHei&quot;, &quot;Helvetica Neue&quot;, Helvetica, Arial " font-size="10.285714285714493px" font-style="normal" font-weight="bold" text-decoration="normal" x="766.1222552061686" y="454.43179479033756" text-anchor="middle" dominant-baseline="central">F</text></g></g><g id="9849ce8" name="text" text="E"><g><path fill="none" stroke="none"/><text fill="#222222" stroke="none" font-family="&quot;Hiragino Sans GB&quot;, &quot;Microsoft YaHei&quot;, &quot;Helvetica Neue&quot;, Helvetica, Arial " font-size="10.285714285714493px" font-style="normal" font-weight="bold" text-decoration="normal" x="766.7617827359303" y="404.68452829343494" text-anchor="middle" dominant-baseline="central">E</text></g></g></g></svg>